<?xml version="1.0" encoding="UTF-8"?>
<svg xmlns="http://www.w3.org/2000/svg" xmlns:xlink="http://www.w3.org/1999/xlink" width="2100" height="2100" viewBox="0 0 2100 2100">
<rect x="-210" y="-210" width="2520" height="2520" fill="rgb(100%, 100%, 100%)" fill-opacity="1"/>
<path fill-rule="nonzero" fill="rgb(0%, 0%, 0%)" fill-opacity="1" d="M 1052 1769.324219 C 1065.230469 1733.269531 1064.429688 1683.9375 1050.148438 1655.5 C 1045.449219 1646.144531 1026 1622.433594 1006.929688 1602.808594 C 966.949219 1561.683594 959.257812 1548.71875 955.398438 1516 C 951.558594 1483.445312 956.597656 1462.988281 980.324219 1414.753906 C 999.316406 1376.15625 1000.679688 1371.378906 1000.78125 1343.394531 L 1000.878906 1313.40625 L 1052.421875 1313.140625 C 1099.261719 1312.902344 1107.03125 1311.789062 1137.660156 1300.933594 C 1156.191406 1294.363281 1174.199219 1287.707031 1177.679688 1286.140625 C 1188.441406 1281.296875 1198.878906 1315.191406 1198.921875 1355.03125 C 1198.949219 1396.878906 1187.890625 1422.671875 1157.269531 1452.160156 C 1130.660156 1477.777344 1113.871094 1503.921875 1113.871094 1519.710938 C 1113.871094 1526.574219 1117.519531 1542.726562 1121.980469 1555.605469 C 1149.050781 1633.671875 1124.589844 1716.320312 1058.691406 1769.5 C 1049.148438 1777.195312 1049.109375 1777.195312 1052 1769.320312 Z M 489.46875 1496.046875 C 487.289062 1495.160156 478.613281 1493.28125 470.191406 1491.867188 L 454.875 1489.296875 L 478.917969 1477.925781 C 510.070312 1463.191406 536.039062 1438.988281 546.308594 1415.117188 C 550.902344 1404.445312 556.984375 1375.773438 560.164062 1349.804688 C 566.925781 1294.617188 578.632812 1266.863281 603.714844 1246.546875 C 628.257812 1226.675781 643.179688 1220.269531 684.164062 1212.027344 C 730.878906 1202.628906 742.613281 1197.566406 766.160156 1176.667969 C 776.613281 1167.390625 785.644531 1160.464844 786.230469 1161.277344 C 786.816406 1162.089844 795.625 1174.628906 805.808594 1189.136719 C 827.460938 1219.988281 859.304688 1249.46875 893.367188 1270.195312 C 906.710938 1278.3125 918.199219 1285.382812 918.894531 1285.910156 C 923.246094 1289.199219 900.742188 1321.308594 882.222656 1338.234375 C 850.601562 1367.132812 833.679688 1371.777344 765.75 1370.191406 C 724.082031 1369.21875 708.296875 1370.265625 700.304688 1374.503906 C 694.515625 1377.585938 680.777344 1393.121094 669.777344 1409.03125 C 645.503906 1444.144531 625.371094 1461.191406 586.230469 1479.78125 C 562.152344 1491.214844 550.457031 1494.269531 524.953125 1495.785156 C 507.617188 1496.816406 491.648438 1496.9375 489.46875 1496.046875 Z M 816.535156 1490.710938 C 816.535156 1489.03125 822.894531 1484.234375 830.671875 1480.046875 C 838.445312 1475.863281 849.839844 1466.699219 855.996094 1459.691406 C 869.648438 1444.140625 884.855469 1397 883.65625 1373.945312 C 882.863281 1358.6875 884.558594 1355.1875 900.820312 1338.5 C 910.746094 1328.320312 921.175781 1313.601562 924 1305.796875 C 929.808594 1289.730469 930.164062 1289.660156 957.269531 1299.167969 C 981.171875 1307.554688 986.867188 1316.933594 986.945312 1348.050781 C 987.019531 1376.183594 977.378906 1402.371094 955.4375 1433.648438 C 927.800781 1473.050781 896.5 1490.027344 847.257812 1492.324219 C 830.359375 1493.113281 816.535156 1492.382812 816.535156 1490.710938 Z M 1278.589844 1478.804688 C 1284.191406 1441.054688 1264.941406 1396.464844 1232.851562 1372.910156 C 1214.558594 1359.484375 1212.96875 1357.003906 1212.878906 1341.808594 C 1212.839844 1332.730469 1208.429688 1314.6875 1203.089844 1301.71875 C 1197.769531 1288.75 1193.789062 1277.9375 1194.269531 1277.691406 C 1194.75 1277.449219 1204.578125 1271.320312 1216.121094 1264.078125 L 1237.109375 1250.910156 L 1252.878906 1258.019531 C 1279.261719 1269.914062 1316.050781 1316.628906 1316.050781 1338.222656 C 1316.050781 1342.234375 1317.910156 1347.371094 1320.171875 1349.640625 C 1322.441406 1351.90625 1325.160156 1367.246094 1326.210938 1383.726562 C 1328.640625 1421.636719 1319.488281 1447.882812 1294.039062 1475.945312 L 1276.070312 1495.769531 Z M 1640.148438 1479.792969 C 1634.730469 1465.078125 1599.808594 1433.320312 1577.699219 1423.011719 C 1553.429688 1411.691406 1532.398438 1410.410156 1466.410156 1416.222656 C 1414.261719 1420.816406 1395.03125 1414.375 1362.050781 1381.246094 C 1339.628906 1358.734375 1330.410156 1343.316406 1315.539062 1303.496094 C 1309.398438 1287.074219 1284.78125 1259.292969 1266.179688 1247.792969 L 1252.941406 1239.617188 L 1276.910156 1211.097656 C 1306.039062 1176.441406 1324.460938 1144.128906 1336.121094 1107.253906 C 1340.941406 1091.988281 1345.230469 1079.070312 1345.640625 1078.539062 C 1346.058594 1078.011719 1357.519531 1081.339844 1371.128906 1085.929688 C 1420.601562 1102.636719 1454.621094 1146.226562 1460.46875 1200.417969 C 1468.058594 1270.566406 1468.359375 1271.023438 1525.21875 1297.859375 C 1579.949219 1323.6875 1606.511719 1347.96875 1627.160156 1391.054688 C 1641.960938 1421.945312 1646.390625 1442.226562 1644.398438 1470 C 1643.441406 1483.308594 1642.359375 1485.796875 1640.148438 1479.792969 Z M 992.953125 1293.433594 C 932.71875 1280.015625 893.136719 1257.957031 848.019531 1212.671875 C 791.71875 1156.152344 764.996094 1092.238281 764.996094 1014.089844 C 764.996094 814.808594 960.140625 676.601562 1145.839844 744.371094 C 1218.589844 770.921875 1271.378906 817.589844 1306 885.960938 C 1324.308594 922.140625 1332.191406 952.960938 1334.730469 998.28125 C 1340.449219 1100.425781 1292.121094 1195.378906 1205 1253.160156 C 1145.179688 1292.835938 1061.558594 1308.71875 992.953125 1293.433594 Z M 609.5625 1194.859375 C 580.890625 1187.144531 556.152344 1168.207031 538.035156 1140.097656 C 528.492188 1125.300781 529.058594 1124.648438 545.480469 1131.507812 C 581.175781 1146.425781 627.394531 1137.183594 663.589844 1107.890625 C 678.410156 1095.890625 681.085938 1095.089844 695.621094 1098.289062 C 705.707031 1100.503906 719.910156 1100.144531 734.65625 1097.300781 C 747.40625 1094.839844 758.238281 1093.398438 758.722656 1094.101562 C 759.210938 1094.789062 763.527344 1105.859375 768.316406 1118.6875 L 777.023438 1142.011719 L 766.726562 1155.511719 C 753.429688 1172.949219 732.257812 1186.816406 707.457031 1194.339844 C 683.726562 1201.535156 635.320312 1201.792969 609.5625 1194.863281 Z M 1555.609375 1124.699219 C 1549.230469 1117.988281 1535.980469 1107.746094 1526.171875 1101.945312 C 1510.539062 1092.699219 1504.148438 1091.410156 1474.628906 1091.539062 C 1454.738281 1091.628906 1437.140625 1093.789062 1431.679688 1096.808594 C 1423.929688 1101.109375 1421.359375 1100.972656 1415.820312 1095.988281 C 1404.378906 1085.679688 1368.871094 1069.589844 1357.570312 1069.589844 C 1347.25 1069.589844 1346.851562 1068.878906 1349.191406 1054.730469 C 1350.539062 1046.550781 1351.660156 1033.960938 1351.691406 1026.75 C 1351.730469 1014.960938 1353.621094 1012.800781 1370.558594 1005.210938 C 1429.460938 978.828125 1521.421875 1014.109375 1552.589844 1075.039062 C 1560.761719 1091 1571.320312 1132.484375 1568.089844 1135.957031 C 1567.609375 1136.480469 1561.988281 1131.414062 1555.609375 1124.699219 Z M 666.699219 1077.941406 C 638.667969 1068.261719 620.175781 1052.730469 597.375 1019.730469 C 586.945312 1004.628906 571.414062 985.25 562.855469 976.660156 L 547.296875 961.03125 L 502.027344 961.980469 C 477.128906 962.488281 448.0625 960.808594 437.433594 958.238281 C 405.71875 950.558594 366.160156 927.730469 345.660156 905.261719 C 328.246094 886.171875 299.71875 840.511719 307.574219 844.300781 C 309.496094 845.230469 321.773438 851.191406 334.855469 857.558594 C 352.578125 866.179688 365.933594 869.53125 387.230469 870.679688 C 421.859375 872.550781 441.511719 866.570312 475.929688 843.710938 C 523.625 812.03125 529.496094 809.910156 568.757812 810.089844 C 609.210938 810.28125 629.121094 818.019531 661.921875 846.269531 C 703.710938 882.28125 729.074219 895.160156 758.160156 895.160156 C 771.265625 895.160156 771.242188 894.300781 759.132812 934.808594 C 750.957031 962.140625 747 1037.871094 752.503906 1061.570312 C 755.585938 1074.828125 755.433594 1080.070312 751.894531 1082.320312 C 742.714844 1088.148438 688.148438 1085.351562 666.699219 1077.941406 Z M 1490.488281 999.628906 C 1485.039062 998.558594 1469.238281 994.230469 1455.378906 990.019531 C 1424.828125 980.75 1403.539062 980.371094 1375.851562 988.589844 C 1364.328125 992.011719 1354.410156 994.238281 1353.808594 993.550781 C 1353.191406 992.859375 1349.660156 977.121094 1345.960938 958.589844 C 1337.859375 918.101562 1320.378906 874.648438 1299.980469 844.300781 L 1284.980469 821.980469 L 1301.5 810.910156 C 1326.371094 794.269531 1356.089844 786.839844 1389.078125 789.019531 C 1413.878906 790.660156 1422.628906 793.710938 1464.339844 815.269531 C 1490.289062 828.679688 1515.039062 839.660156 1519.328125 839.660156 C 1523.621094 839.660156 1545.199219 830.878906 1567.289062 820.160156 C 1627.480469 790.929688 1663.941406 785.71875 1713.070312 799.339844 C 1739.578125 806.691406 1766.21875 820.261719 1784 835.460938 L 1793.769531 843.800781 L 1779.890625 841.480469 C 1760.621094 838.25 1718.679688 845.648438 1699.109375 855.71875 C 1675.171875 868.039062 1658.808594 885.269531 1637.179688 920.929688 C 1613.078125 960.640625 1597.128906 977.101562 1571.148438 989.058594 C 1550.859375 998.398438 1510.789062 1003.660156 1490.488281 999.628906 Z M 710.339844 867.199219 C 684.035156 854.058594 651.09375 821.449219 637.804688 795.398438 C 633.464844 786.890625 627.625 768.839844 624.824219 755.28125 C 620.234375 733.089844 620.496094 728.269531 627.46875 706.851562 C 636.050781 680.480469 642.101562 670.929688 642.101562 683.769531 C 642.101562 717.53125 684.351562 758.640625 729.308594 768.621094 C 751.179688 773.46875 754.21875 775.449219 763.105469 790.609375 C 768.476562 799.78125 780.070312 813.441406 788.871094 820.96875 L 804.871094 834.671875 L 778.871094 879.140625 L 756.710938 879.21875 C 739.828125 879.28125 728.78125 876.410156 710.339844 867.199219 Z M 794.949219 811.570312 C 774.671875 793.761719 756.648438 754.628906 754.101562 722.878906 C 752.328125 700.78125 753.949219 690.851562 764.925781 656.910156 C 782.507812 602.519531 780.953125 589.859375 752.929688 559.28125 C 741.386719 546.691406 726.824219 528.351562 720.574219 518.539062 C 693.179688 475.53125 685.152344 410.871094 701.601562 365.710938 C 706.324219 352.730469 711.132812 339 712.285156 335.179688 C 715.996094 322.921875 720.300781 327.738281 722.902344 347.078125 C 726.195312 371.53125 742.335938 406.039062 758.300781 422.75 C 773.375 438.53125 789.214844 446.96875 826.445312 459.070312 C 877.789062 475.761719 903.082031 493.078125 920.773438 523.660156 C 933.117188 545 941.101562 587.800781 937.75 614.699219 C 934.496094 640.820312 942.804688 682.070312 956.117188 705.890625 L 966.019531 723.609375 L 945.789062 729.988281 C 916.203125 739.320312 864.230469 772.769531 836.96875 800.03125 C 823.898438 813.109375 812.230469 823.800781 811.042969 823.800781 C 809.855469 823.800781 802.613281 818.289062 794.949219 811.570312 Z M 1258.820312 796.308594 C 1241.628906 778.851562 1239.890625 775.480469 1242.179688 764.03125 C 1246.679688 741.5 1261.898438 716.28125 1281.789062 698.398438 C 1328.03125 656.820312 1393.089844 645.648438 1443.980469 670.550781 C 1456.480469 676.660156 1466.699219 682.871094 1466.699219 684.339844 C 1466.699219 685.820312 1459.121094 687.339844 1449.851562 687.730469 C 1413.261719 689.28125 1378.980469 714.578125 1359.28125 754.589844 C 1351.628906 770.128906 1344.160156 780.21875 1340.289062 780.28125 C 1329.910156 780.410156 1299.019531 795.75 1288.121094 806.160156 L 1278.03125 815.808594 Z M 1217.5 763.019531 C 1209.378906 753.238281 1154.589844 728.609375 1122.960938 720.519531 C 1106.359375 716.269531 1083.550781 712.800781 1072.269531 712.800781 C 1060.980469 712.800781 1050.878906 711.921875 1049.820312 710.859375 C 1048.75 709.789062 1049.269531 697.398438 1050.960938 683.328125 C 1054.351562 655.160156 1067.640625 625.421875 1086.378906 604.078125 C 1098.160156 590.660156 1136.46875 568.75 1148.160156 568.75 C 1151.320312 568.75 1164.878906 563.25 1178.289062 556.53125 C 1206.460938 542.421875 1216.910156 527.941406 1219.371094 499.648438 C 1226.371094 419.089844 1279.851562 354.269531 1358.601562 330.910156 L 1379.339844 324.75 L 1359.730469 350.339844 C 1338.800781 377.648438 1327.941406 406.121094 1327.941406 433.710938 C 1327.941406 443.03125 1335.128906 471.378906 1344.070312 497.410156 C 1363.621094 554.230469 1364.058594 581.679688 1345.988281 617.28125 C 1336.140625 636.691406 1295.378906 681.078125 1287.410156 681.078125 C 1277.609375 681.078125 1246.179688 717.339844 1234.808594 741.761719 C 1224.460938 763.980469 1221.410156 767.730469 1217.5 763.019531 Z M 973.433594 704.5 C 952.730469 679.898438 945.519531 646.21875 951.222656 600.75 C 956.136719 561.539062 969.273438 536.378906 997.363281 512.378906 C 1030.5 484.078125 1064.378906 472.421875 1043.109375 496.648438 C 1036.449219 504.230469 1029.789062 516.910156 1028.308594 524.820312 C 1023.96875 547.96875 1029.628906 583.96875 1041.550781 609 L 1052.621094 632.25 L 1045.308594 649.019531 C 1041.148438 658.539062 1037.828125 675.941406 1037.621094 689.289062 L 1037.25 712.800781 L 1025.011719 712.839844 C 1018.28125 712.871094 1006.390625 713.941406 998.601562 715.230469 C 986.074219 717.300781 983.148438 716.058594 973.433594 704.511719 Z M 973.433594 704.5 "/>
</svg>
